<svg width="75" height="30" viewBox="0 0 75 30" fill="none" xmlns="http://www.w3.org/2000/svg">
<path d="M20.784 23L28.272 6.2H32.112L39.624 23H35.544L29.4 8.168H30.936L24.768 23H20.784ZM24.528 19.4L25.56 16.448H34.2L35.256 19.4H24.528ZM41.367 23V6.2H49.575C51.687 6.2 53.271 6.6 54.327 7.4C55.399 8.2 55.935 9.256 55.935 10.568C55.935 11.448 55.719 12.216 55.287 12.872C54.855 13.512 54.263 14.008 53.511 14.36C52.759 14.712 51.895 14.888 50.919 14.888L51.375 13.904C52.431 13.904 53.367 14.08 54.183 14.432C54.999 14.768 55.631 15.272 56.079 15.944C56.543 16.616 56.775 17.44 56.775 18.416C56.775 19.856 56.207 20.984 55.071 21.8C53.935 22.6 52.263 23 50.055 23H41.367ZM45.231 20.072H49.767C50.775 20.072 51.535 19.912 52.047 19.592C52.575 19.256 52.839 18.728 52.839 18.008C52.839 17.304 52.575 16.784 52.047 16.448C51.535 16.096 50.775 15.92 49.767 15.92H44.943V13.088H49.095C50.039 13.088 50.759 12.928 51.255 12.608C51.767 12.272 52.023 11.768 52.023 11.096C52.023 10.44 51.767 9.952 51.255 9.632C50.759 9.296 50.039 9.128 49.095 9.128H45.231V20.072Z" fill="black"/>
<path d="M67.5 12.5L56 5L73.5 14.5L56 24L67.5 12.5Z" fill="#00B8E4" stroke="#00B8E4"/>
<path d="M8 12.5L19.5 5L2 14.5L19.5 24L8 12.5Z" fill="#00B8E4" stroke="#00B8E4"/>
</svg>
